<?xml version="1.0" encoding="UTF-8" standalone="no"?>
<!-- Generator: Adobe Illustrator 22.0.0, SVG Export Plug-In . SVG Version: 6.00 Build 0)  -->

<svg
   xmlns:dc="http://purl.org/dc/elements/1.1/"
   xmlns:cc="http://creativecommons.org/ns#"
   xmlns:rdf="http://www.w3.org/1999/02/22-rdf-syntax-ns#"
   xmlns:svg="http://www.w3.org/2000/svg"
   xmlns="http://www.w3.org/2000/svg"
   xmlns:xlink="http://www.w3.org/1999/xlink"
   xmlns:sodipodi="http://sodipodi.sourceforge.net/DTD/sodipodi-0.dtd"
   xmlns:inkscape="http://www.inkscape.org/namespaces/inkscape"
   version="1.1"
   id="Layer_1"
   x="0px"
   y="0px"
   viewBox="0 0 591 200"
   style="enable-background:new 0 0 591 200;"
   xml:space="preserve"
   inkscape:version="0.91 r13725"
   sodipodi:docname="logo_adv.cake_w.svg"><metadata
     id="metadata249"><rdf:RDF><cc:Work
         rdf:about=""><dc:format>image/svg+xml</dc:format><dc:type
           rdf:resource="http://purl.org/dc/dcmitype/StillImage" /><dc:title></dc:title></cc:Work></rdf:RDF></metadata><defs
     id="defs247" /><sodipodi:namedview
     pagecolor="#ffffff"
     bordercolor="#666666"
     borderopacity="1"
     objecttolerance="10"
     gridtolerance="10"
     guidetolerance="10"
     inkscape:pageopacity="0"
     inkscape:pageshadow="2"
     inkscape:window-width="1920"
     inkscape:window-height="999"
     id="namedview245"
     showgrid="false"
     inkscape:zoom="0.50423012"
     inkscape:cx="295.5"
     inkscape:cy="100"
     inkscape:window-x="0"
     inkscape:window-y="24"
     inkscape:window-maximized="1"
     inkscape:current-layer="Layer_1" /><style
     type="text/css"
     id="style3">
	.st0{clip-path:url(#SVGID_3_);}
	.st1{clip-path:url(#SVGID_4_);}
	.st2{fill:#030304;}
	.st3{clip-path:url(#SVGID_8_);}
	.st4{clip-path:url(#SVGID_9_);}
	.st5{clip-path:url(#SVGID_10_);}
	.st6{clip-path:url(#SVGID_13_);}
	.st7{clip-path:url(#SVGID_14_);}
	.st8{clip-path:url(#SVGID_18_);}
	.st9{clip-path:url(#SVGID_19_);}
	.st10{clip-path:url(#SVGID_20_);}
	.st11{clip-path:url(#SVGID_23_);}
	.st12{clip-path:url(#SVGID_24_);}
	.st13{clip-path:url(#SVGID_27_);}
	.st14{clip-path:url(#SVGID_28_);}
	.st15{clip-path:url(#SVGID_31_);}
	.st16{clip-path:url(#SVGID_32_);}
	.st17{clip-path:url(#SVGID_35_);}
	.st18{clip-path:url(#SVGID_36_);}
	.st19{clip-path:url(#SVGID_39_);}
	.st20{clip-path:url(#SVGID_40_);}
</style><g
     id="g5"
     style="fill:#ffffff"><path
       d="M216.1,109.8h-21.5l-4.2,16h-16.7l24.4-78.2h14.4l24.6,78.2h-16.9L216.1,109.8z M198,96.7h14.6l-7.3-27.9L198,96.7z"
       id="path7"
       style="fill:#ffffff" /><path
       d="M243,95c0-9.5,1.6-16.6,4.8-21.3c3.2-4.7,7.9-7,14.1-7c4.5,0,8.2,1.9,11.2,5.8V43.3h15.3v82.5h-13.8l-0.7-5.9   c-3.1,4.7-7.1,7-12,7c-6.1,0-10.7-2.3-13.9-7c-3.2-4.7-4.8-11.5-4.9-20.5V95z M258.3,98.8c0,5.7,0.6,9.7,1.8,12   c1.2,2.3,3.3,3.4,6.2,3.4c3,0,5.3-1.3,6.8-4V83.7c-1.5-2.9-3.8-4.3-6.8-4.3c-2.8,0-4.8,1.1-6.1,3.4s-1.9,6.3-1.9,12V98.8z"
       id="path9"
       style="fill:#ffffff" /><path
       d="M319.9,104.3l7.4-36.6h15.8l-16,58.1h-14.5l-16-58.1h15.9L319.9,104.3z"
       id="path11"
       style="fill:#ffffff" /><path
       d="M343.9,118.1c0-2.4,0.8-4.4,2.4-6c1.6-1.6,3.8-2.4,6.4-2.4c2.5,0,4.7,0.8,6.3,2.3c1.7,1.6,2.5,3.6,2.5,6   c0,2.5-0.9,4.5-2.6,6c-1.7,1.5-3.8,2.3-6.3,2.3c-2.5,0-4.6-0.8-6.3-2.3C344.7,122.6,343.9,120.6,343.9,118.1z"
       id="path13"
       style="fill:#ffffff" /><path
       d="M429.7,99.8c-0.4,8.9-2.9,15.7-7.5,20.2c-4.6,4.6-11.1,6.9-19.6,6.9c-8.8,0-15.6-2.9-20.3-8.7c-4.7-5.8-7.1-14.1-7.1-24.9   V80.1c0-10.7,2.4-19,7.3-24.8c4.9-5.8,11.6-8.7,20.3-8.7c8.5,0,15,2.4,19.4,7.1c4.4,4.8,6.9,11.6,7.5,20.5H414   c-0.1-5.5-1-9.3-2.6-11.4c-1.6-2.1-4.4-3.1-8.6-3.1c-4.2,0-7.2,1.5-9,4.4c-1.8,3-2.7,7.8-2.8,14.6v14.8c0,7.8,0.9,13.1,2.6,16   c1.7,2.9,4.7,4.4,8.9,4.4c4.2,0,7-1,8.6-3c1.6-2,2.5-5.7,2.7-11H429.7z"
       id="path15"
       style="fill:#ffffff" /><path
       d="M467.6,125.8c-0.4-0.9-0.9-2.4-1.3-4.5c-2.7,3.7-6.4,5.6-11.1,5.6c-4.9,0-8.9-1.6-12.1-4.8c-3.2-3.2-4.8-7.4-4.8-12.5   c0-6.1,1.9-10.8,5.8-14.1c3.9-3.3,9.5-5,16.8-5.1h4.6v-4.7c0-2.6-0.4-4.5-1.3-5.5c-0.9-1.1-2.2-1.6-3.9-1.6c-3.8,0-5.7,2.2-5.7,6.7   h-15.2c0-5.4,2-9.8,6-13.3c4-3.5,9.1-5.2,15.3-5.2c6.4,0,11.3,1.7,14.8,5c3.5,3.3,5.2,8,5.2,14.2v27.3c0.1,5,0.8,8.9,2.1,11.8v0.9   H467.6z M458.7,115c1.7,0,3.1-0.3,4.3-1c1.2-0.7,2.1-1.5,2.6-2.4V99.4h-3.7c-2.6,0-4.6,0.8-6.1,2.5c-1.5,1.6-2.2,3.8-2.2,6.6   C453.6,112.8,455.3,115,458.7,115z"
       id="path17"
       style="fill:#ffffff" /><path
       d="M512.4,103.4l-4.1,4.6v17.8h-15.2V43.3h15.2v44.6l1.9-2.8l10.5-17.4h18.1l-16.9,24l18.5,34.2H523L512.4,103.4z"
       id="path19"
       style="fill:#ffffff" /><path
       d="M569.5,126.9c-7.8,0-13.9-2.3-18.3-7c-4.4-4.7-6.6-11.3-6.6-20v-4.6c0-9.2,2-16.2,6-21.2c4-5,9.8-7.5,17.2-7.5   c7.3,0,12.8,2.3,16.5,7c3.7,4.7,5.6,11.6,5.6,20.7v7.5h-30.2c0.2,4.3,1.2,7.5,2.8,9.5c1.7,2,4.3,3,7.8,3c5.1,0,9.3-1.7,12.7-5.2   l6,9.2c-1.9,2.6-4.6,4.7-8.1,6.3C577.5,126.1,573.6,126.9,569.5,126.9z M559.9,91.2h15.2v-1.4c-0.1-3.5-0.6-6.1-1.7-7.9   c-1.1-1.8-2.9-2.7-5.6-2.7c-2.7,0-4.6,0.9-5.8,2.8C560.8,84,560.1,87,559.9,91.2z"
       id="path21"
       style="fill:#ffffff" /></g><g
     id="g23"
     style="fill:#ffffff"><path
       d="M187.5,189.8c-0.2-0.5-0.4-1.5-0.5-2.7c-1.5,2.1-3.3,3.2-5.6,3.2c-2.3,0-4.1-0.6-5.3-1.9c-1.3-1.3-1.9-3.1-1.9-5.4   c0-2.6,0.9-4.6,2.6-6.1c1.7-1.5,4.1-2.3,7.1-2.3h3v-2.7c0-1.5-0.3-2.6-1-3.2c-0.7-0.6-1.7-1-3-1c-1.2,0-2.2,0.4-3,1.1   c-0.8,0.7-1.2,1.7-1.2,2.8h-4.1c0-1.3,0.4-2.5,1.1-3.7c0.8-1.2,1.8-2.1,3.1-2.8s2.7-1,4.3-1c2.6,0,4.5,0.6,5.9,1.9   c1.3,1.3,2,3.1,2.1,5.6v12.7c0,1.9,0.3,3.6,0.8,5v0.4H187.5z M182,186.5c1,0,2-0.3,2.9-0.8c0.9-0.6,1.6-1.3,2-2.1v-6h-2.3   c-2,0-3.5,0.5-4.6,1.3s-1.7,2-1.7,3.5c0,1.4,0.3,2.5,0.9,3.1S180.7,186.5,182,186.5z"
       id="path25"
       style="fill:#ffffff" /><path
       d="M197.2,176c0-3.9,0.7-6.8,2.2-8.9c1.5-2,3.5-3,6.2-3c2.4,0,4.3,1,5.6,2.9v-13h4.1v35.7h-3.8l-0.2-2.7   c-1.3,2.1-3.3,3.2-5.8,3.2c-2.6,0-4.6-1-6.1-3c-1.5-2-2.2-4.9-2.3-8.6V176z M201.4,178.4c0,2.8,0.4,4.9,1.3,6.2s2.2,2,4.1,2   c2,0,3.6-1,4.6-3.1v-12.7c-1.1-2-2.6-3-4.6-3c-1.9,0-3.3,0.7-4.1,2c-0.8,1.3-1.3,3.4-1.3,6.1V178.4z"
       id="path27"
       style="fill:#ffffff" /><path
       d="M229.8,183.5l4.8-18.9h4.2l-7.5,25.2h-3.1l-7.6-25.2h4.2L229.8,183.5z"
       id="path29"
       style="fill:#ffffff" /><path
       d="M252.2,190.2c-3.1,0-5.5-0.9-7.2-2.8c-1.7-1.9-2.5-4.6-2.6-8.2v-3c0-3.8,0.8-6.7,2.5-8.8c1.6-2.1,3.9-3.2,6.9-3.2   c2.9,0,5.1,0.9,6.6,2.8c1.5,1.9,2.2,4.8,2.2,8.8v2.7h-14.1v0.6c0,2.7,0.5,4.7,1.5,5.9c1,1.2,2.5,1.8,4.4,1.8c1.2,0,2.3-0.2,3.2-0.7   c0.9-0.5,1.8-1.2,2.6-2.2l2.1,2.6C258.6,189,255.9,190.2,252.2,190.2z M251.8,167.7c-1.7,0-3,0.6-3.8,1.8c-0.8,1.2-1.3,3-1.4,5.5   h9.9v-0.6c-0.1-2.4-0.5-4.1-1.3-5.1C254.4,168.2,253.3,167.7,251.8,167.7z"
       id="path31"
       style="fill:#ffffff" /><path
       d="M277,168.4c-0.6-0.1-1.2-0.2-1.9-0.2c-2.1,0-3.6,1.2-4.4,3.5v18h-4.1v-25.2h4l0.1,2.6c1.1-2,2.7-3,4.7-3   c0.7,0,1.2,0.1,1.6,0.3L277,168.4z"
       id="path33"
       style="fill:#ffffff" /><path
       d="M288.9,158.5v6.1h3.8v3.3h-3.8v15.6c0,1,0.2,1.7,0.5,2.3s0.9,0.8,1.7,0.8c0.5,0,1.1-0.1,1.7-0.3l0,3.5   c-0.9,0.3-1.9,0.5-2.9,0.5c-1.6,0-2.9-0.6-3.7-1.7s-1.3-2.8-1.3-4.9v-15.6H281v-3.3h3.8v-6.1H288.9z"
       id="path35"
       style="fill:#ffffff" /><path
       d="M302.8,157.9c0,0.7-0.2,1.3-0.6,1.7c-0.4,0.5-1,0.7-1.8,0.7c-0.8,0-1.4-0.2-1.7-0.7c-0.4-0.5-0.6-1-0.6-1.7   s0.2-1.3,0.6-1.8c0.4-0.5,1-0.7,1.7-0.7s1.4,0.2,1.8,0.7C302.6,156.6,302.8,157.2,302.8,157.9z M302.5,189.8h-4.1v-25.2h4.1V189.8z   "
       id="path37"
       style="fill:#ffffff" /><path
       d="M321.5,183.3c0-0.9-0.3-1.6-1-2.3c-0.7-0.6-2-1.4-3.9-2.2c-2.2-0.9-3.8-1.7-4.7-2.3s-1.6-1.4-2-2.2c-0.5-0.8-0.7-1.8-0.7-3   c0-2,0.7-3.7,2.2-5.1c1.5-1.4,3.4-2,5.7-2c2.5,0,4.4,0.7,5.9,2.1c1.5,1.4,2.2,3.3,2.2,5.5h-4.1c0-1.1-0.4-2.1-1.1-2.9   s-1.7-1.2-2.9-1.2c-1.2,0-2.2,0.3-2.8,0.9c-0.7,0.6-1,1.5-1,2.5c0,0.8,0.3,1.5,0.8,2s1.7,1.2,3.6,2c3.1,1.2,5.1,2.4,6.2,3.5   s1.7,2.6,1.7,4.3c0,2.2-0.8,3.9-2.3,5.3c-1.5,1.3-3.5,2-6,2c-2.6,0-4.7-0.8-6.4-2.3c-1.6-1.5-2.4-3.4-2.4-5.7h4.1   c0,1.4,0.5,2.5,1.3,3.3s1.9,1.2,3.4,1.2c1.4,0,2.4-0.3,3.1-0.9C321.2,185.2,321.5,184.4,321.5,183.3z"
       id="path39"
       style="fill:#ffffff" /><path
       d="M336.3,157.9c0,0.7-0.2,1.3-0.6,1.7c-0.4,0.5-1,0.7-1.8,0.7c-0.8,0-1.4-0.2-1.7-0.7c-0.4-0.5-0.6-1-0.6-1.7   s0.2-1.3,0.6-1.8c0.4-0.5,1-0.7,1.7-0.7s1.4,0.2,1.8,0.7S336.3,157.2,336.3,157.9z M336,189.8h-4.1v-25.2h4.1V189.8z"
       id="path41"
       style="fill:#ffffff" /><path
       d="M347,164.6l0.1,2.7c1.6-2.1,3.6-3.2,6.1-3.2c4.5,0,6.7,3,6.8,8.9v16.7h-4.1v-16.5c0-2-0.3-3.4-1-4.2   c-0.7-0.8-1.6-1.2-3-1.2c-1,0-1.9,0.3-2.8,1c-0.8,0.7-1.5,1.6-2,2.7v18.3h-4.1v-25.2H347z"
       id="path43"
       style="fill:#ffffff" /><path
       d="M366.3,176c0-3.9,0.7-6.9,2.1-8.9c1.4-2,3.5-3,6.3-3c2.6,0,4.5,1.1,5.8,3.3l0.2-2.8h3.7V190c0,3.1-0.8,5.5-2.4,7.2   c-1.6,1.7-3.8,2.5-6.7,2.5c-1.2,0-2.6-0.3-4.2-0.9c-1.5-0.6-2.7-1.4-3.5-2.3l1.7-2.8c1.7,1.7,3.6,2.5,5.7,2.5   c3.4,0,5.2-1.9,5.3-5.6v-3.3c-1.3,2-3.2,3-5.7,3c-2.6,0-4.6-1-6.1-2.9c-1.5-2-2.2-4.8-2.3-8.5V176z M370.4,178.4   c0,2.8,0.4,4.9,1.2,6.2s2.2,2,4.1,2c2,0,3.6-1,4.6-3.1v-12.6c-1.1-2.1-2.6-3.1-4.6-3.1c-1.9,0-3.3,0.7-4.1,2   c-0.8,1.3-1.3,3.4-1.3,6.1V178.4z"
       id="path45"
       style="fill:#ffffff" /><path
       d="M409.7,158.5v6.1h3.8v3.3h-3.8v15.6c0,1,0.2,1.7,0.5,2.3s0.9,0.8,1.7,0.8c0.5,0,1.1-0.1,1.7-0.3l0,3.5   c-0.9,0.3-1.9,0.5-2.9,0.5c-1.6,0-2.9-0.6-3.7-1.7c-0.9-1.2-1.3-2.8-1.3-4.9v-15.6h-3.8v-3.3h3.8v-6.1H409.7z"
       id="path47"
       style="fill:#ffffff" /><path
       d="M427.8,190.2c-3.1,0-5.5-0.9-7.2-2.8s-2.5-4.6-2.6-8.2v-3c0-3.8,0.8-6.7,2.5-8.8c1.6-2.1,3.9-3.2,6.9-3.2   c2.9,0,5.1,0.9,6.6,2.8c1.5,1.9,2.2,4.8,2.2,8.8v2.7h-14.1v0.6c0,2.7,0.5,4.7,1.5,5.9c1,1.2,2.5,1.8,4.4,1.8c1.2,0,2.3-0.2,3.2-0.7   c0.9-0.5,1.8-1.2,2.6-2.2l2.1,2.6C434.2,189,431.5,190.2,427.8,190.2z M427.3,167.7c-1.7,0-3,0.6-3.8,1.8c-0.8,1.2-1.3,3-1.4,5.5   h9.9v-0.6c-0.1-2.4-0.5-4.1-1.3-5.1C430,168.2,428.9,167.7,427.3,167.7z"
       id="path49"
       style="fill:#ffffff" /><path
       d="M446.3,167.2c1.6-2,3.6-3,6-3c4.5,0,6.7,3,6.8,8.9v16.7H455v-16.5c0-2-0.3-3.4-1-4.2c-0.7-0.8-1.6-1.2-3-1.2   c-1,0-1.9,0.3-2.8,1c-0.8,0.7-1.5,1.6-2,2.7v18.3h-4.1V154h4.1V167.2z"
       id="path51"
       style="fill:#ffffff" /><path
       d="M469.9,164.6l0.1,2.7c1.6-2.1,3.6-3.2,6.1-3.2c4.5,0,6.7,3,6.8,8.9v16.7h-4.1v-16.5c0-2-0.3-3.4-1-4.2   c-0.7-0.8-1.6-1.2-3-1.2c-1,0-1.9,0.3-2.8,1c-0.8,0.7-1.5,1.6-2,2.7v18.3h-4.1v-25.2H469.9z"
       id="path53"
       style="fill:#ffffff" /><path
       d="M489.1,176c0-3.7,0.9-6.6,2.7-8.7c1.8-2.1,4.1-3.2,7-3.2c2.9,0,5.3,1,7,3.1s2.7,4.9,2.7,8.5v2.7c0,3.6-0.9,6.5-2.7,8.7   c-1.8,2.1-4.1,3.2-7.1,3.2c-2.9,0-5.3-1-7-3.1c-1.8-2.1-2.7-4.9-2.7-8.4V176z M493.2,178.4c0,2.6,0.5,4.6,1.5,6.1   c1,1.5,2.4,2.2,4.1,2.2c3.6,0,5.5-2.6,5.6-7.9V176c0-2.6-0.5-4.6-1.5-6.1c-1-1.5-2.4-2.2-4.1-2.2c-1.7,0-3,0.7-4.1,2.2   s-1.5,3.5-1.5,6.1V178.4z"
       id="path55"
       style="fill:#ffffff" /><path
       d="M519,189.8h-4.1V154h4.1V189.8z"
       id="path57"
       style="fill:#ffffff" /><path
       d="M525.4,176c0-3.7,0.9-6.6,2.7-8.7c1.8-2.1,4.1-3.2,7-3.2c2.9,0,5.3,1,7,3.1s2.7,4.9,2.7,8.5v2.7c0,3.6-0.9,6.5-2.7,8.7   c-1.8,2.1-4.1,3.2-7.1,3.2c-2.9,0-5.3-1-7-3.1c-1.8-2.1-2.7-4.9-2.7-8.4V176z M529.5,178.4c0,2.6,0.5,4.6,1.5,6.1   c1,1.5,2.4,2.2,4.1,2.2c3.6,0,5.5-2.6,5.6-7.9V176c0-2.6-0.5-4.6-1.5-6.1c-1-1.5-2.4-2.2-4.1-2.2c-1.7,0-3,0.7-4.1,2.2   s-1.5,3.5-1.5,6.1V178.4z"
       id="path59"
       style="fill:#ffffff" /><path
       d="M550.3,176c0-3.9,0.7-6.9,2.1-8.9c1.4-2,3.5-3,6.3-3c2.6,0,4.5,1.1,5.8,3.3l0.2-2.8h3.7V190c0,3.1-0.8,5.5-2.4,7.2   c-1.6,1.7-3.8,2.5-6.7,2.5c-1.2,0-2.6-0.3-4.2-0.9c-1.5-0.6-2.7-1.4-3.5-2.3l1.7-2.8c1.7,1.7,3.6,2.5,5.7,2.5   c3.4,0,5.2-1.9,5.3-5.6v-3.3c-1.3,2-3.2,3-5.7,3c-2.6,0-4.6-1-6.1-2.9c-1.5-2-2.2-4.8-2.3-8.5V176z M554.4,178.4   c0,2.8,0.4,4.9,1.2,6.2s2.2,2,4.1,2c2,0,3.6-1,4.6-3.1v-12.6c-1.1-2.1-2.6-3.1-4.6-3.1c-1.9,0-3.3,0.7-4.1,2   c-0.8,1.3-1.3,3.4-1.3,6.1V178.4z"
       id="path61"
       style="fill:#ffffff" /><path
       d="M582.6,182.9l4.6-18.3h4.4l-8.2,28.7c-0.6,2.2-1.5,3.8-2.6,4.9c-1.1,1.1-2.4,1.7-3.9,1.7c-0.6,0-1.3-0.1-2.1-0.4v-3.5   l0.9,0.1c1.2,0,2.1-0.3,2.8-0.8c0.7-0.6,1.2-1.5,1.6-2.9l0.8-2.8l-7.4-25h4.5L582.6,182.9z"
       id="path63"
       style="fill:#ffffff" /></g><g
     id="g65"
     style="fill:#ffffff"><g
       id="g67"
       style="fill:#ffffff"><defs
         id="defs69"><rect
           id="SVGID_1_"
           x="1"
           y="1.7"
           width="133"
           height="197.3" /></defs><defs
         id="defs72"><path
           id="SVGID_2_"
           d="M1,75c0,0,1.5,15.9,1.7,18.8c0.2,2.9,2.1,5.9,5.1,6.5c3.9,0.7,6.9-2.3,10.1-1.5c4.1,1,4.8,17,12.4,17.7     c7.7,0.7,10.6-10.6,14.1-10.3c3.6,0.3,6.6,7.4,12.9,7.2c6.3-0.2,8.5-3.5,10.8-5.6c2.7-2.4,6.8-1.8,8.1,3.3     c1.3,5.4,2.6,8.2,5.4,9.3c3.7,1.6,6.4-0.1,9-2.4c2.5-2.3,5.3,2.1,6.8,4.9c1.2,2.3,5,7.8,9.4,7.3c7.5-0.8,9.5-10.7,9.9-15.1     c0.4-4.3,1.6-9.2,3.7-9.4c2.8-0.3,2.7,8.2,6.1,6.8c4.1-1.7,6.8-18,6.9-21.8c0.1-2.5,0.1-15.8,0.1-15.8H1" /></defs><clipPath
         id="SVGID_3_"><use
           xlink:href="#SVGID_1_"
           style="overflow:visible;"
           id="use76" /></clipPath><clipPath
         id="SVGID_4_"
         class="st0"
         clip-path="url(#SVGID_3_)"><use
           xlink:href="#SVGID_2_"
           style="overflow:visible;"
           id="use79" /></clipPath><g
         class="st1"
         id="g81"
         clip-path="url(#SVGID_4_)"
         style="fill:#ffffff"><rect
           x="-2"
           y="71.9"
           class="st2"
           width="138.7"
           height="61.4"
           id="rect83"
           style="fill:#ffffff" /></g></g><g
       id="g85"
       style="fill:#ffffff"><defs
         id="defs87"><rect
           id="SVGID_5_"
           x="1"
           y="1.7"
           width="133"
           height="197.3" /></defs><defs
         id="defs90"><path
           id="SVGID_6_"
           d="M67.3,89.9C30.7,89.9,1,83.3,1,75c0-8.2,29.7-14.9,66.3-14.9s66.3,6.7,66.3,14.9     C133.6,83.3,103.9,89.9,67.3,89.9L67.3,89.9z M67.3,89.9" /></defs><defs
         id="defs93"><rect
           id="SVGID_7_"
           x="1"
           y="-284.7"
           width="371.7"
           height="483.7" /></defs><clipPath
         id="SVGID_8_"><use
           xlink:href="#SVGID_5_"
           style="overflow:visible;"
           id="use97" /></clipPath><clipPath
         id="SVGID_9_"
         class="st3"
         clip-path="url(#SVGID_8_)"><use
           xlink:href="#SVGID_6_"
           style="overflow:visible;"
           id="use100" /></clipPath><clipPath
         id="SVGID_10_"
         class="st4"
         clip-path="url(#SVGID_9_)"><use
           xlink:href="#SVGID_7_"
           style="overflow:visible;"
           id="use103" /></clipPath><g
         class="st5"
         id="g105"
         clip-path="url(#SVGID_10_)"
         style="fill:#ffffff"><rect
           x="-2"
           y="57.1"
           class="st2"
           width="138.7"
           height="35.9"
           id="rect107"
           style="fill:#ffffff" /></g></g><g
       id="g109"
       style="fill:#ffffff"><defs
         id="defs111"><rect
           id="SVGID_11_"
           x="1"
           y="1.7"
           width="133"
           height="197.3" /></defs><defs
         id="defs114"><path
           id="SVGID_12_"
           d="M122.9,153.1l-0.7,4.7c0,0-11.5,18.9-54.8,18.9h-0.5c-44,0-54.8-18.9-54.8-18.9l-0.8-5.1     c0,0,0-0.9,0.5-0.2c3,4.2,16.3,18.9,55.1,18.9c0.1,0,0.1,0,0.2,0h0.2c0.1,0,0.1,0,0.2,0c37.8,0,51.4-13.9,54.8-18.5     C122.9,151.9,122.9,153.1,122.9,153.1" /></defs><use
         xlink:href="#SVGID_12_"
         style="overflow:visible;fill-rule:evenodd;clip-rule:evenodd;fill:#ffffff"
         id="use117" /><clipPath
         id="SVGID_13_"><use
           xlink:href="#SVGID_11_"
           style="overflow:visible;"
           id="use120" /></clipPath><clipPath
         id="SVGID_14_"
         class="st6"
         clip-path="url(#SVGID_13_)"><use
           xlink:href="#SVGID_12_"
           style="overflow:visible;"
           id="use123" /></clipPath><g
         class="st7"
         id="g125"
         clip-path="url(#SVGID_14_)"
         style="fill:#ffffff"><rect
           x="8.3"
           y="149.1"
           class="st2"
           width="117.7"
           height="30.6"
           id="rect127"
           style="fill:#ffffff" /></g></g><g
       id="g129"
       style="fill:#ffffff"><defs
         id="defs131"><rect
           id="SVGID_15_"
           x="1"
           y="1.7"
           width="133"
           height="197.3" /></defs><defs
         id="defs134"><path
           id="SVGID_16_"
           d="M60.5,74.8c1.4,0.5,3.8,1.3,6.4,1.3l0.3,0c2.6-0.1,4.9-0.8,6.1-1.2c0.6-5.2,2.6-24.3,3.6-33.3     c-2.5,1.8-5.9,3.3-9.7,3.8c-0.6,0.1-1.2,0.1-1.9,0.1c-2,0-4-0.4-5.8-0.7c-0.8-0.1-1.6-0.3-2.2-0.3L60.5,74.8L60.5,74.8L60.5,74.8     z M66.8,80.5c-4.9,0-9.2-2.1-9.4-2.2l-1.1-0.5l-3.7-34.6l0-0.2c0-0.5,0.3-3.1,3.8-3.1c1.1,0,2.3,0.2,3.7,0.5     c2.1,0.4,4.6,0.7,6.3,0.5c4.6-0.6,8.4-3.2,10.2-5.2c1.1-1.2,3.2-1.1,4.3,0.2c0.5,0.6,0.8,1.4,0.7,2.1c-0.7,5.2-4.2,38.2-4.2,38.6     l-0.1,1.2l-1.1,0.5c-0.2,0.1-4.1,2.1-9.1,2.2L66.8,80.5L66.8,80.5L66.8,80.5z M66.8,80.5" /></defs><defs
         id="defs137"><rect
           id="SVGID_17_"
           x="1"
           y="1.7"
           width="133"
           height="197.3" /></defs><clipPath
         id="SVGID_18_"><use
           xlink:href="#SVGID_15_"
           style="overflow:visible;"
           id="use141" /></clipPath><clipPath
         id="SVGID_19_"
         class="st8"
         clip-path="url(#SVGID_18_)"><use
           xlink:href="#SVGID_16_"
           style="overflow:visible;"
           id="use144" /></clipPath><clipPath
         id="SVGID_20_"
         class="st9"
         clip-path="url(#SVGID_19_)"><use
           xlink:href="#SVGID_17_"
           style="overflow:visible;"
           id="use147" /></clipPath><g
         class="st10"
         id="g149"
         clip-path="url(#SVGID_20_)"
         style="fill:#ffffff"><rect
           x="49.6"
           y="31.8"
           class="st2"
           width="35.1"
           height="51.7"
           id="rect151"
           style="fill:#ffffff" /></g></g><g
       id="g153"
       style="fill:#ffffff"><defs
         id="defs155"><rect
           id="SVGID_21_"
           x="1"
           y="1.7"
           width="133"
           height="197.3" /></defs><defs
         id="defs158"><path
           id="SVGID_22_"
           d="M68.4,2.8c-1.3-3.2-6.5,6.9-8.5,11.8c-1.2,2.8-3.9,8.7-2.3,14.7c1,3.7,4,7.5,9.6,7.5     c6.6,0,10.5-6.5,9.8-13C76.2,16.4,69,4.1,68.4,2.8" /></defs><clipPath
         id="SVGID_23_"><use
           xlink:href="#SVGID_21_"
           style="overflow:visible;"
           id="use162" /></clipPath><clipPath
         id="SVGID_24_"
         class="st11"
         clip-path="url(#SVGID_23_)"><use
           xlink:href="#SVGID_22_"
           style="overflow:visible;"
           id="use165" /></clipPath><g
         class="st12"
         id="g167"
         clip-path="url(#SVGID_24_)"
         style="fill:#ffffff"><rect
           x="54.1"
           y="-0.8"
           class="st2"
           width="26.1"
           height="40.8"
           id="rect169"
           style="fill:#ffffff" /></g></g><g
       id="g171"
       style="fill:#ffffff"><defs
         id="defs173"><rect
           id="SVGID_25_"
           x="1"
           y="1.7"
           width="133"
           height="197.3" /></defs><defs
         id="defs176"><path
           id="SVGID_26_"
           d="M88.8,88.1c-10.2,1-23.4,1.4-46.7-1C24.3,85.3,13.9,80,8.4,75.1c-4.4-4-6.1,0.3-2.5,4.1     c4.4,4.7,12.5,9.8,33.2,11.9c14.5,1.5,38.2,2.7,55.5-1.4c7.8-1.8,10.2-4,8.5-3.6C99.5,86.9,89.9,88,88.8,88.1" /></defs><use
         xlink:href="#SVGID_26_"
         style="overflow:visible;fill-rule:evenodd;clip-rule:evenodd;fill:#ffffff"
         id="use179" /><clipPath
         id="SVGID_27_"><use
           xlink:href="#SVGID_25_"
           style="overflow:visible;"
           id="use182" /></clipPath><clipPath
         id="SVGID_28_"
         class="st13"
         clip-path="url(#SVGID_27_)"><use
           xlink:href="#SVGID_26_"
           style="overflow:visible;"
           id="use185" /></clipPath><g
         class="st14"
         id="g187"
         clip-path="url(#SVGID_28_)"
         style="fill:#ffffff"><rect
           x="0.9"
           y="70.4"
           class="st2"
           width="105.7"
           height="25.1"
           id="rect189"
           style="fill:#ffffff" /></g></g><g
       id="g191"
       style="fill:#ffffff"><defs
         id="defs193"><rect
           id="SVGID_29_"
           x="1"
           y="1.7"
           width="133"
           height="197.3" /></defs><defs
         id="defs196"><path
           id="SVGID_30_"
           d="M121.9,167.8l-1.5,9.8c0,0-11.1,20.8-53.3,20.9h-0.9c-42.2-0.2-53.3-20.9-53.3-20.9l-1.5-9.8     c0,0,0.5-1.6,1.7-0.2c5,5.7,19.5,16.6,53.1,16.7h0.9c33.6-0.1,48.1-10.9,53-16.7C121.4,166.2,121.9,167.8,121.9,167.8" /></defs><clipPath
         id="SVGID_31_"><use
           xlink:href="#SVGID_29_"
           style="overflow:visible;"
           id="use200" /></clipPath><clipPath
         id="SVGID_32_"
         class="st15"
         clip-path="url(#SVGID_31_)"><use
           xlink:href="#SVGID_30_"
           style="overflow:visible;"
           id="use203" /></clipPath><g
         class="st16"
         id="g205"
         clip-path="url(#SVGID_32_)"
         style="fill:#ffffff"><rect
           x="8.3"
           y="164"
           class="st2"
           width="116.6"
           height="37.6"
           id="rect207"
           style="fill:#ffffff" /></g></g><g
       id="g209"
       style="fill:#ffffff"><defs
         id="defs211"><rect
           id="SVGID_33_"
           x="1"
           y="1.7"
           width="133"
           height="197.3" /></defs><defs
         id="defs214"><path
           id="SVGID_34_"
           d="M126.5,130.8l-1.6,10.4c0,0-11.9,22.2-56.9,22.4h-1C21.9,163.4,10,141.2,10,141.2l-1.6-10.4     c0,0,0.5-1.8,1.9-0.2c5.3,6.1,20.8,17.7,56.7,17.8h1c35.9-0.1,51.3-11.7,56.7-17.8C126,129,126.5,130.8,126.5,130.8" /></defs><clipPath
         id="SVGID_35_"><use
           xlink:href="#SVGID_33_"
           style="overflow:visible;"
           id="use218" /></clipPath><clipPath
         id="SVGID_36_"
         class="st17"
         clip-path="url(#SVGID_35_)"><use
           xlink:href="#SVGID_34_"
           style="overflow:visible;"
           id="use221" /></clipPath><g
         class="st18"
         id="g223"
         clip-path="url(#SVGID_36_)"
         style="fill:#ffffff"><rect
           x="5.3"
           y="126.9"
           class="st2"
           width="124.2"
           height="39.7"
           id="rect225"
           style="fill:#ffffff" /></g></g><g
       id="g227"
       style="fill:#ffffff"><defs
         id="defs229"><rect
           id="SVGID_37_"
           x="1"
           y="1.7"
           width="133"
           height="197.3" /></defs><defs
         id="defs232"><path
           id="SVGID_38_"
           d="M99.1,133.3c-8.3,2.4-19,4-32.4,4h-0.6c-48,0-59.9-20.6-59.9-20.6l-0.9-5.6c0,0,0-1,0.6-0.2     c3.3,4.6,17.8,20.7,60.2,20.6c0.1,0,0.1,0,0.2,0h0.2c0.1,0,0.1,0,0.2,0c11,0,20.6-1.1,28.2-2.8c0.1,0,0.7,1.2,1.8,2.3     C97.7,132.2,99.2,133.3,99.1,133.3" /></defs><clipPath
         id="SVGID_39_"><use
           xlink:href="#SVGID_37_"
           style="overflow:visible;"
           id="use236" /></clipPath><clipPath
         id="SVGID_40_"
         class="st19"
         clip-path="url(#SVGID_39_)"><use
           xlink:href="#SVGID_38_"
           style="overflow:visible;"
           id="use239" /></clipPath><g
         class="st20"
         id="g241"
         clip-path="url(#SVGID_40_)"
         style="fill:#ffffff"><rect
           x="2.4"
           y="107.6"
           class="st2"
           width="99.7"
           height="32.9"
           id="rect243"
           style="fill:#ffffff" /></g></g></g></svg>